<?xml version="1.0" standalone="no"?>
<!DOCTYPE svg PUBLIC "-//W3C//DTD SVG 20010904//EN"
 "http://www.w3.org/TR/2001/REC-SVG-20010904/DTD/svg10.dtd">
<svg version="1.0" xmlns="http://www.w3.org/2000/svg"
 width="261.000000pt" height="261.000000pt" viewBox="0 0 261.000000 261.000000"
 preserveAspectRatio="xMidYMid meet">
<metadata>
Created by potrace 1.14, written by Peter Selinger 2001-2017
</metadata>
<g transform="translate(0.000000,261.000000) scale(0.100000,-0.100000)"
fill="#000000" stroke="none">
<path d="M2534 2584 c-81 -55 -136 -105 -374 -343 -217 -217 -326 -331 -546
-570 -32 -35 -72 -79 -89 -96 -38 -41 -185 -202 -205 -225 -8 -9 -51 -57 -95
-105 -44 -48 -84 -93 -90 -99 -5 -7 -32 -36 -60 -66 -44 -48 -153 -171 -203
-227 -9 -11 -45 -51 -79 -89 -34 -38 -70 -78 -80 -90 -10 -12 -47 -54 -83 -94
-36 -40 -72 -81 -80 -90 -97 -111 -121 -139 -142 -161 -12 -14 -48 -54 -78
-89 -62 -72 -113 -129 -159 -180 -29 -32 -27 -26 22 70 30 58 105 204 167 325
62 121 147 288 190 370 43 83 119 231 170 330 51 99 118 230 150 290 32 61
106 205 165 320 183 357 237 460 247 473 22 26 -18 11 -146 -56 -461 -241
-807 -519 -954 -765 -61 -102 -137 -329 -157 -472 -3 -22 -9 -47 -12 -55 -3
-8 -7 -91 -8 -185 -5 -242 25 -431 99 -626 l24 -64 104 1 c96 0 223 10 258 19
8 2 33 6 55 10 22 3 69 13 105 21 36 9 74 17 85 20 85 17 284 93 410 156 244
121 489 322 638 523 20 28 40 55 45 60 53 68 193 310 219 380 33 86 30 90 -56
87 -48 -2 -77 1 -81 9 -25 39 57 223 212 477 51 85 98 161 103 170 10 17 19
32 158 245 42 64 77 119 77 122 0 2 17 31 38 63 80 126 119 232 84 232 -5 0
-27 -12 -48 -26z"/>
</g>
</svg>
